<svg width="43" height="43" viewBox="0 0 120 120" fill="none" xmlns="http://www.w3.org/2000/svg">
<path d="M91.6699 25.7644C119.024 43.9093 112.522 95.1107 85 113C81.6847 115.155 77 117 73 117.5C69 118 61 119 54.5 117.362C48 115.725 47.3155 115.775 44 114.5C11.7923 102.112 8.24456 44.5824 37.1699 25.7644C55.0104 14.158 73.9337 13.9994 91.6699 25.7644Z" fill="white"/>
<path d="M55.0357 80.5074V118C55.0357 118 50.6987 117.281 48 116.5C33.9669 112.442 25 103.752 18.5 93.5C12 83.2477 10 75.5084 10 64.5105C10 53.5127 14.949 33.0167 30.7857 21.519C46.6224 10.0212 59.9846 10.0212 59.9846 10.0212C59.9846 10.0212 76.6425 9.35338 88.1938 15.5201C99.7451 21.6869 114.538 36.3219 117.393 55.5123C118.025 59.7639 118.113 62.2168 117.888 66.5101C116.743 88.356 106.984 103.547 87.6989 113.501C87.6989 113.501 83.6979 115.268 80.2754 116.5C77.5 117.5 72.852 118.027 72.852 118.027V80.5074H85.2244L87.6989 64.0106H72.852V54.0126C72.852 50.0134 75.6116 46.0142 78.7907 46.0142H88.1938V32.0169C88.1938 32.0169 73.8418 30.0173 68.8928 31.517C63.9438 33.0167 58.6835 36.7532 56.5204 43.0148C54.3572 49.2763 55.0357 64.0106 55.0357 64.0106H41.6734V80.5074H55.0357Z" fill="#1B79F3"/>
</svg>
