<svg width="29" height="29" viewBox="-5 -5 35 35" fill="none" xmlns="http://www.w3.org/2000/svg">
<path d="M10.9679 8.538C11.2672 7.94576 8.4759 1.20804 7.97751 1.04371C7.47912 0.879378 4.98715 1.20805 3.99036 1.53673L3.99024 1.53677C2.99341 1.86546 1 2.52275 1 3.50873C1 4.49475 1.83066 8.538 2.49519 10.51C3.15971 12.482 3.49196 13.6153 4.98715 15.8338C6.48233 18.0524 6.98073 18.2989 7.97751 19.2849C8.97429 20.2709 10.9679 21.7499 13.4598 22.7359C15.9518 23.7219 16.9486 23.9684 17.9453 24.2149L17.9454 24.2149C18.9422 24.4614 22.9293 25.3994 23.4277 24.8071C23.9261 24.2149 23.9261 24.2149 24.4245 22.3421C24.9229 20.4694 25.4213 18.8911 24.4245 18.3981C23.4277 17.9051 18.9422 15.8338 18.4438 15.9331C17.9454 16.0323 15.9518 18.7919 15.4534 18.7919C14.955 18.7919 12.5684 17.417 10.9679 15.8338C9.36736 14.2506 7.81138 11.8898 7.97751 11.3968C8.14364 10.9038 10.6685 9.13024 10.9679 8.538Z" fill="white" stroke="white"/>
</svg>