<svg width="29" height="29" viewBox="0 0 29 29" fill="none" xmlns="http://www.w3.org/2000/svg">
<path d="M14 18.747C11.5 18.747 4 11.6988 4 11.6988V20.3133C4 21.1566 4.76923 22 5.53846 22H22.4615C23.2308 22 24 21.1566 24 20.3133V11.6988C24 11.6988 16.5 18.747 14 18.747Z" fill="white"/>
<path d="M4.0062 8.70865C4 9.3494 13.0943 16.3976 14.0031 16.3976C14.9119 16.3976 24 9.3494 24 8.70865C24 8.06791 24 8.70865 24 7.85433C24 7 24 7 23.0912 7C22.1824 7 5.82382 7 4.91501 7C4.0062 7 4 7 4.0062 7.85433C4.01239 8.70865 4.01239 8.06791 4.0062 8.70865Z" fill="white"/>
<path d="M14 18.747C11.5 18.747 4 11.6988 4 11.6988V20.3133C4 21.1566 4.76923 22 5.53846 22H22.4615C23.2308 22 24 21.1566 24 20.3133V11.6988C24 11.6988 16.5 18.747 14 18.747Z" stroke="white"/>
<path d="M4.0062 8.70865C4 9.3494 13.0943 16.3976 14.0031 16.3976C14.9119 16.3976 24 9.3494 24 8.70865C24 8.06791 24 8.70865 24 7.85433C24 7 24 7 23.0912 7C22.1824 7 5.82382 7 4.91501 7C4.0062 7 4 7 4.0062 7.85433C4.01239 8.70865 4.01239 8.06791 4.0062 8.70865Z" stroke="white"/>
</svg>