<svg width="29" height="29" viewBox="0 0 29 29" fill="none" xmlns="http://www.w3.org/2000/svg">
<path d="M14.5 3C12 3 7 4.53704 7 10.5C7 15.6111 13.6667 26 14.5 26C15.3333 26 22 15.6111 22 10.5C22 4.68488 17 3 14.5 3Z" stroke="white" stroke-width="3"/>
<path d="M18 10.5C18 12.433 16.433 14 14.5 14C12.567 14 11 12.433 11 10.5C11 8.567 12.567 7 14.5 7C16.433 7 18 8.567 18 10.5Z" stroke="white" stroke-width="2"/>
<path d="M16 15H13L14.5 19L16 15Z" fill="white" stroke="white"/>
<path d="M14.5 5C13 5 10 6.2029 10 10.8696C10 14.8696 14 23 14.5 23C15 23 19 14.8696 19 10.8696C19 6.3186 16 5 14.5 5Z" stroke="white" stroke-width="3.5"/>
</svg>

